<svg width="723" height="252" viewBox="0 0 723 252" fill="none" xmlns="http://www.w3.org/2000/svg">
<path d="M92.2662 60.4348L82.1361 68.2687C82.0042 67.6574 81.7414 66.8125 81.3478 65.734C81.0585 64.6913 80.2979 62.732 79.0661 59.8562C77.9386 57.0161 76.6164 54.3921 75.0996 51.9841C73.6871 49.612 71.7406 47.1505 69.2602 44.5997C66.884 42.0848 64.3537 40.2714 61.6691 39.1594C55.1003 36.1457 49.0519 37.5551 43.5237 43.3877C38.0998 49.2561 34.883 57.6757 33.8732 68.6463C33.0399 77.6027 34.3252 85.4957 37.729 92.3253C41.2626 99.011 46.3458 105.947 52.9787 113.132L56.661 117.228C56.7652 117.264 57.9012 118.504 60.0689 120.947C62.3663 123.246 63.9331 124.917 64.7691 125.959C65.7094 127.037 67.2772 129.085 69.4726 132.104C71.7722 135.158 73.472 137.818 74.5718 140.082C75.6717 142.347 76.9949 145.349 78.5416 149.087C80.0883 152.826 81.1531 156.493 81.7361 160.089C82.3192 163.685 82.6566 167.857 82.7483 172.604C82.9443 177.387 82.6851 182.297 81.9706 187.333C79.6998 203.34 74.8516 214.783 67.4261 221.66C60.0006 228.538 51.6655 231.425 42.4209 230.32L39.4356 251.363L28.4912 247.599L31.3999 227.095C23.3442 223.004 16.6082 216.16 11.1919 206.564C5.87987 197.003 2.45677 187.997 0.922607 179.547L11.5665 173.871C12.8901 181.494 15.8015 189.097 20.3009 196.681C24.8257 204.085 30.6321 209.006 37.7199 211.443C45.6415 214.168 52.7068 213.297 58.9157 208.83C65.2288 204.399 69.2657 195.979 71.0262 183.569C71.46 180.511 71.6598 177.562 71.6256 174.721C71.7211 171.735 71.5051 169.02 70.9774 166.575C70.4752 163.95 69.9348 161.595 69.3561 159.51C68.8816 157.46 68.0296 155.375 66.8 153.255C65.5959 150.954 64.6013 149.103 63.8163 147.701C63.1356 146.335 61.9985 144.718 60.4052 142.85C58.8118 140.981 57.6886 139.652 57.0355 138.861C56.3825 138.071 55.1944 136.813 53.4713 135.089C51.8524 133.4 50.8994 132.412 50.6122 132.125L46.9299 128.029C43.3263 124.149 40.2832 120.555 37.8006 117.249C35.318 113.943 32.6376 109.72 29.7593 104.581C26.9065 99.2608 24.846 93.3648 23.5778 86.8924C22.4139 80.4558 22.1338 73.5687 22.7375 66.2311C24.1511 50.8722 28.4771 38.8728 35.7153 30.233C43.0832 21.4492 51.4044 18.2749 60.679 20.7102L63.5877 0.206543L74.5321 3.9707L71.3937 26.093C75.829 29.5048 79.773 34.068 83.2257 39.7827C86.6784 45.4974 89.0483 50.3681 90.3355 54.3948L92.2662 60.4348Z" fill="#264030"/>
<path d="M162.17 60.4348L152.04 68.2687C151.908 67.6574 151.645 66.8125 151.251 65.734C150.962 64.6913 150.201 62.732 148.97 59.8562C147.842 57.0161 146.52 54.3921 145.003 51.9841C143.591 49.612 141.644 47.1505 139.164 44.5997C136.787 42.0848 134.257 40.2714 131.573 39.1594C125.004 36.1457 118.955 37.5551 113.427 43.3877C108.003 49.2561 104.786 57.6757 103.777 68.6463C102.943 77.6027 104.229 85.4957 107.632 92.3253C111.166 99.011 116.249 105.947 122.882 113.132L126.564 117.228C126.669 117.264 127.805 118.504 129.972 120.947C132.27 123.246 133.837 124.917 134.673 125.959C135.613 127.037 137.181 129.085 139.376 132.104C141.676 135.158 143.375 137.818 144.475 140.082C145.575 142.347 146.898 145.349 148.445 149.087C149.992 152.826 151.057 156.493 151.64 160.089C152.223 163.685 152.56 167.857 152.652 172.604C152.848 177.387 152.589 182.297 151.874 187.333C149.603 203.34 144.755 214.783 137.33 221.66C129.904 228.538 121.569 231.425 112.324 230.32L109.339 251.363L98.3946 247.599L101.303 227.095C93.2476 223.004 86.5116 216.16 81.0953 206.564C75.7833 197.003 72.3602 187.997 70.826 179.547L81.47 173.871C82.7935 181.494 85.7049 189.097 90.2043 196.681C94.7292 204.085 100.536 209.006 107.623 211.443C115.545 214.168 122.61 213.297 128.819 208.83C135.132 204.399 139.169 195.979 140.93 183.569C141.363 180.511 141.563 177.562 141.529 174.721C141.625 171.735 141.409 169.02 140.881 166.575C140.379 163.95 139.838 161.595 139.26 159.51C138.785 157.46 137.933 155.375 136.703 153.255C135.499 150.954 134.505 149.103 133.72 147.701C133.039 146.335 131.902 144.718 130.309 142.85C128.715 140.981 127.592 139.652 126.939 138.861C126.286 138.071 125.098 136.813 123.375 135.089C121.756 133.4 120.803 132.412 120.516 132.125L116.833 128.029C113.23 124.149 110.187 120.555 107.704 117.249C105.221 113.943 102.541 109.72 99.6627 104.581C96.8099 99.2608 94.7494 93.3648 93.4813 86.8924C92.3173 80.4558 92.0372 73.5687 92.6409 66.2311C94.0546 50.8722 98.3805 38.8728 105.619 30.233C112.987 21.4492 121.308 18.2749 130.582 20.7102L133.491 0.206543L144.436 3.9707L141.297 26.093C145.732 29.5048 149.676 34.068 153.129 39.7827C156.582 45.4974 158.952 50.3681 160.239 54.3948L162.17 60.4348Z" fill="#264030"/>
<path d="M232.17 60.4348L222.04 68.2687C221.908 67.6574 221.645 66.8125 221.251 65.734C220.962 64.6913 220.201 62.732 218.97 59.8562C217.842 57.0161 216.52 54.3921 215.003 51.9841C213.591 49.612 211.644 47.1505 209.164 44.5997C206.787 42.0848 204.257 40.2714 201.573 39.1594C195.004 36.1457 188.955 37.5551 183.427 43.3877C178.003 49.2561 174.786 57.6757 173.777 68.6463C172.943 77.6027 174.229 85.4957 177.632 92.3253C181.166 99.011 186.249 105.947 192.882 113.132L196.564 117.228C196.669 117.264 197.805 118.504 199.972 120.947C202.27 123.246 203.837 124.917 204.673 125.959C205.613 127.037 207.181 129.085 209.376 132.104C211.676 135.158 213.375 137.818 214.475 140.082C215.575 142.347 216.898 145.349 218.445 149.087C219.992 152.826 221.057 156.493 221.64 160.089C222.223 163.685 222.56 167.857 222.652 172.604C222.848 177.387 222.589 182.297 221.874 187.333C219.603 203.34 214.755 214.783 207.33 221.66C199.904 228.538 191.569 231.425 182.324 230.32L179.339 251.363L168.395 247.599L171.303 227.095C163.248 223.004 156.512 216.16 151.095 206.564C145.783 197.003 142.36 187.997 140.826 179.547L151.47 173.871C152.794 181.494 155.705 189.097 160.204 196.681C164.729 204.085 170.536 209.006 177.623 211.443C185.545 214.168 192.61 213.297 198.819 208.83C205.132 204.399 209.169 195.979 210.93 183.569C211.363 180.511 211.563 177.562 211.529 174.721C211.625 171.735 211.409 169.02 210.881 166.575C210.379 163.95 209.838 161.595 209.26 159.51C208.785 157.46 207.933 155.375 206.703 153.255C205.499 150.954 204.505 149.103 203.72 147.701C203.039 146.335 201.902 144.718 200.309 142.85C198.715 140.981 197.592 139.652 196.939 138.861C196.286 138.071 195.098 136.813 193.375 135.089C191.756 133.4 190.803 132.412 190.516 132.125L186.833 128.029C183.23 124.149 180.187 120.555 177.704 117.249C175.221 113.943 172.541 109.72 169.663 104.581C166.81 99.2608 164.749 93.3648 163.481 86.8924C162.317 80.4558 162.037 73.5687 162.641 66.2311C164.055 50.8722 168.381 38.8728 175.619 30.233C182.987 21.4492 191.308 18.2749 200.582 20.7102L203.491 0.206543L214.436 3.9707L211.297 26.093C215.732 29.5048 219.676 34.068 223.129 39.7827C226.582 45.4974 228.952 50.3681 230.239 54.3948L232.17 60.4348Z" fill="#264030"/>
<path d="M302.17 60.4348L292.04 68.2687C291.908 67.6574 291.645 66.8125 291.251 65.734C290.962 64.6913 290.201 62.732 288.97 59.8562C287.842 57.0161 286.52 54.3921 285.003 51.9841C283.591 49.612 281.644 47.1505 279.164 44.5997C276.787 42.0848 274.257 40.2714 271.573 39.1594C265.004 36.1457 258.955 37.5551 253.427 43.3877C248.003 49.2561 244.786 57.6757 243.777 68.6463C242.943 77.6027 244.229 85.4957 247.632 92.3253C251.166 99.011 256.249 105.947 262.882 113.132L266.564 117.228C266.669 117.264 267.805 118.504 269.972 120.947C272.27 123.246 273.837 124.917 274.673 125.959C275.613 127.037 277.181 129.085 279.376 132.104C281.676 135.158 283.375 137.818 284.475 140.082C285.575 142.347 286.898 145.349 288.445 149.087C289.992 152.826 291.057 156.493 291.64 160.089C292.223 163.685 292.56 167.857 292.652 172.604C292.848 177.387 292.589 182.297 291.874 187.333C289.603 203.34 284.755 214.783 277.33 221.66C269.904 228.538 261.569 231.425 252.324 230.32L249.339 251.363L238.395 247.599L241.303 227.095C233.248 223.004 226.512 216.16 221.095 206.564C215.783 197.003 212.36 187.997 210.826 179.547L221.47 173.871C222.794 181.494 225.705 189.097 230.204 196.681C234.729 204.085 240.536 209.006 247.623 211.443C255.545 214.168 262.61 213.297 268.819 208.83C275.132 204.399 279.169 195.979 280.93 183.569C281.363 180.511 281.563 177.562 281.529 174.721C281.625 171.735 281.409 169.02 280.881 166.575C280.379 163.95 279.838 161.595 279.26 159.51C278.785 157.46 277.933 155.375 276.703 153.255C275.499 150.954 274.505 149.103 273.72 147.701C273.039 146.335 271.902 144.718 270.309 142.85C268.715 140.981 267.592 139.652 266.939 138.861C266.286 138.071 265.098 136.813 263.375 135.089C261.756 133.4 260.803 132.412 260.516 132.125L256.833 128.029C253.23 124.149 250.187 120.555 247.704 117.249C245.221 113.943 242.541 109.72 239.663 104.581C236.81 99.2608 234.749 93.3648 233.481 86.8924C232.317 80.4558 232.037 73.5687 232.641 66.2311C234.055 50.8722 238.381 38.8728 245.619 30.233C252.987 21.4492 261.308 18.2749 270.582 20.7102L273.491 0.206543L284.436 3.9707L281.297 26.093C285.732 29.5048 289.676 34.068 293.129 39.7827C296.582 45.4974 298.952 50.3681 300.239 54.3948L302.17 60.4348Z" fill="#264030"/>
<path d="M372.17 60.4348L362.04 68.2687C361.908 67.6574 361.645 66.8125 361.251 65.734C360.962 64.6913 360.201 62.732 358.97 59.8562C357.842 57.0161 356.52 54.3921 355.003 51.9841C353.591 49.612 351.644 47.1505 349.164 44.5997C346.787 42.0848 344.257 40.2714 341.573 39.1594C335.004 36.1457 328.955 37.5551 323.427 43.3877C318.003 49.2561 314.786 57.6757 313.777 68.6463C312.943 77.6027 314.229 85.4957 317.632 92.3253C321.166 99.011 326.249 105.947 332.882 113.132L336.564 117.228C336.669 117.264 337.805 118.504 339.972 120.947C342.27 123.246 343.837 124.917 344.673 125.959C345.613 127.037 347.181 129.085 349.376 132.104C351.676 135.158 353.375 137.818 354.475 140.082C355.575 142.347 356.898 145.349 358.445 149.087C359.992 152.826 361.057 156.493 361.64 160.089C362.223 163.685 362.56 167.857 362.652 172.604C362.848 177.387 362.589 182.297 361.874 187.333C359.603 203.34 354.755 214.783 347.33 221.66C339.904 228.538 331.569 231.425 322.324 230.32L319.339 251.363L308.395 247.599L311.303 227.095C303.248 223.004 296.512 216.16 291.095 206.564C285.783 197.003 282.36 187.997 280.826 179.547L291.47 173.871C292.794 181.494 295.705 189.097 300.204 196.681C304.729 204.085 310.536 209.006 317.623 211.443C325.545 214.168 332.61 213.297 338.819 208.83C345.132 204.399 349.169 195.979 350.93 183.569C351.363 180.511 351.563 177.562 351.529 174.721C351.625 171.735 351.409 169.02 350.881 166.575C350.379 163.95 349.838 161.595 349.26 159.51C348.785 157.46 347.933 155.375 346.703 153.255C345.499 150.954 344.505 149.103 343.72 147.701C343.039 146.335 341.902 144.718 340.309 142.85C338.715 140.981 337.592 139.652 336.939 138.861C336.286 138.071 335.098 136.813 333.375 135.089C331.756 133.4 330.803 132.412 330.516 132.125L326.833 128.029C323.23 124.149 320.187 120.555 317.704 117.249C315.221 113.943 312.541 109.72 309.663 104.581C306.81 99.2608 304.749 93.3648 303.481 86.8924C302.317 80.4558 302.037 73.5687 302.641 66.2311C304.055 50.8722 308.381 38.8728 315.619 30.233C322.987 21.4492 331.308 18.2749 340.582 20.7102L343.491 0.206543L354.436 3.9707L351.297 26.093C355.732 29.5048 359.676 34.068 363.129 39.7827C366.582 45.4974 368.952 50.3681 370.239 54.3948L372.17 60.4348Z" fill="#264030"/>
<path d="M442.17 60.4348L432.04 68.2687C431.908 67.6574 431.645 66.8125 431.251 65.734C430.962 64.6913 430.201 62.732 428.97 59.8562C427.842 57.0161 426.52 54.3921 425.003 51.9841C423.591 49.612 421.644 47.1505 419.164 44.5997C416.787 42.0848 414.257 40.2714 411.573 39.1594C405.004 36.1457 398.955 37.5551 393.427 43.3877C388.003 49.2561 384.786 57.6757 383.777 68.6463C382.943 77.6027 384.229 85.4957 387.632 92.3253C391.166 99.011 396.249 105.947 402.882 113.132L406.564 117.228C406.669 117.264 407.805 118.504 409.972 120.947C412.27 123.246 413.837 124.917 414.673 125.959C415.613 127.037 417.181 129.085 419.376 132.104C421.676 135.158 423.375 137.818 424.475 140.082C425.575 142.347 426.898 145.349 428.445 149.087C429.992 152.826 431.057 156.493 431.64 160.089C432.223 163.685 432.56 167.857 432.652 172.604C432.848 177.387 432.589 182.297 431.874 187.333C429.603 203.34 424.755 214.783 417.33 221.66C409.904 228.538 401.569 231.425 392.324 230.32L389.339 251.363L378.395 247.599L381.303 227.095C373.248 223.004 366.512 216.16 361.095 206.564C355.783 197.003 352.36 187.997 350.826 179.547L361.47 173.871C362.794 181.494 365.705 189.097 370.204 196.681C374.729 204.085 380.536 209.006 387.623 211.443C395.545 214.168 402.61 213.297 408.819 208.83C415.132 204.399 419.169 195.979 420.93 183.569C421.363 180.511 421.563 177.562 421.529 174.721C421.625 171.735 421.409 169.02 420.881 166.575C420.379 163.95 419.838 161.595 419.26 159.51C418.785 157.46 417.933 155.375 416.703 153.255C415.499 150.954 414.505 149.103 413.72 147.701C413.039 146.335 411.902 144.718 410.309 142.85C408.715 140.981 407.592 139.652 406.939 138.861C406.286 138.071 405.098 136.813 403.375 135.089C401.756 133.4 400.803 132.412 400.516 132.125L396.833 128.029C393.23 124.149 390.187 120.555 387.704 117.249C385.221 113.943 382.541 109.72 379.663 104.581C376.81 99.2608 374.749 93.3648 373.481 86.8924C372.317 80.4558 372.037 73.5687 372.641 66.2311C374.055 50.8722 378.381 38.8728 385.619 30.233C392.987 21.4492 401.308 18.2749 410.582 20.7102L413.491 0.206543L424.436 3.9707L421.297 26.093C425.732 29.5048 429.676 34.068 433.129 39.7827C436.582 45.4974 438.952 50.3681 440.239 54.3948L442.17 60.4348Z" fill="#264030"/>
<path d="M512.17 60.4348L502.04 68.2687C501.908 67.6574 501.645 66.8125 501.251 65.734C500.962 64.6913 500.201 62.732 498.97 59.8562C497.842 57.0161 496.52 54.3921 495.003 51.9841C493.591 49.612 491.644 47.1505 489.164 44.5997C486.787 42.0848 484.257 40.2714 481.573 39.1594C475.004 36.1457 468.955 37.5551 463.427 43.3877C458.003 49.2561 454.786 57.6757 453.777 68.6463C452.943 77.6027 454.229 85.4957 457.632 92.3253C461.166 99.011 466.249 105.947 472.882 113.132L476.564 117.228C476.669 117.264 477.805 118.504 479.972 120.947C482.27 123.246 483.837 124.917 484.673 125.959C485.613 127.037 487.181 129.085 489.376 132.104C491.676 135.158 493.375 137.818 494.475 140.082C495.575 142.347 496.898 145.349 498.445 149.087C499.992 152.826 501.057 156.493 501.64 160.089C502.223 163.685 502.56 167.857 502.652 172.604C502.848 177.387 502.589 182.297 501.874 187.333C499.603 203.34 494.755 214.783 487.33 221.66C479.904 228.538 471.569 231.425 462.324 230.32L459.339 251.363L448.395 247.599L451.303 227.095C443.248 223.004 436.512 216.16 431.095 206.564C425.783 197.003 422.36 187.997 420.826 179.547L431.47 173.871C432.794 181.494 435.705 189.097 440.204 196.681C444.729 204.085 450.536 209.006 457.623 211.443C465.545 214.168 472.61 213.297 478.819 208.83C485.132 204.399 489.169 195.979 490.93 183.569C491.363 180.511 491.563 177.562 491.529 174.721C491.625 171.735 491.409 169.02 490.881 166.575C490.379 163.95 489.838 161.595 489.26 159.51C488.785 157.46 487.933 155.375 486.703 153.255C485.499 150.954 484.505 149.103 483.72 147.701C483.039 146.335 481.902 144.718 480.309 142.85C478.715 140.981 477.592 139.652 476.939 138.861C476.286 138.071 475.098 136.813 473.375 135.089C471.756 133.4 470.803 132.412 470.516 132.125L466.833 128.029C463.23 124.149 460.187 120.555 457.704 117.249C455.221 113.943 452.541 109.72 449.663 104.581C446.81 99.2608 444.749 93.3648 443.481 86.8924C442.317 80.4558 442.037 73.5687 442.641 66.2311C444.055 50.8722 448.381 38.8728 455.619 30.233C462.987 21.4492 471.308 18.2749 480.582 20.7102L483.491 0.206543L494.436 3.9707L491.297 26.093C495.732 29.5048 499.676 34.068 503.129 39.7827C506.582 45.4974 508.952 50.3681 510.239 54.3948L512.17 60.4348Z" fill="#264030"/>
<path d="M582.17 60.4348L572.04 68.2687C571.908 67.6574 571.645 66.8125 571.251 65.734C570.962 64.6913 570.201 62.732 568.97 59.8562C567.842 57.0161 566.52 54.3921 565.003 51.9841C563.59 49.612 561.644 47.1505 559.164 44.5997C556.787 42.0848 554.257 40.2714 551.573 39.1594C545.004 36.1457 538.955 37.5551 533.427 43.3877C528.003 49.2561 524.786 57.6757 523.777 68.6463C522.943 77.6027 524.229 85.4957 527.632 92.3253C531.166 99.011 536.249 105.947 542.882 113.132L546.564 117.228C546.669 117.264 547.805 118.504 549.972 120.947C552.27 123.246 553.837 124.917 554.673 125.959C555.613 127.037 557.181 129.085 559.376 132.104C561.676 135.158 563.375 137.818 564.475 140.082C565.575 142.347 566.898 145.349 568.445 149.087C569.992 152.826 571.057 156.493 571.64 160.089C572.223 163.685 572.56 167.857 572.652 172.604C572.848 177.387 572.589 182.297 571.874 187.333C569.603 203.34 564.755 214.783 557.33 221.66C549.904 228.538 541.569 231.425 532.324 230.32L529.339 251.363L518.395 247.599L521.303 227.095C513.248 223.004 506.512 216.16 501.095 206.564C495.783 197.003 492.36 187.997 490.826 179.547L501.47 173.871C502.794 181.494 505.705 189.097 510.204 196.681C514.729 204.085 520.535 209.006 527.623 211.443C535.545 214.168 542.61 213.297 548.819 208.83C555.132 204.399 559.169 195.979 560.93 183.569C561.363 180.511 561.563 177.562 561.529 174.721C561.625 171.735 561.409 169.02 560.881 166.575C560.379 163.95 559.838 161.595 559.26 159.51C558.785 157.46 557.933 155.375 556.703 153.255C555.499 150.954 554.505 149.103 553.72 147.701C553.039 146.335 551.902 144.718 550.309 142.85C548.715 140.981 547.592 139.652 546.939 138.861C546.286 138.071 545.098 136.813 543.375 135.089C541.756 133.4 540.803 132.412 540.516 132.125L536.833 128.029C533.23 124.149 530.187 120.555 527.704 117.249C525.221 113.943 522.541 109.72 519.663 104.581C516.81 99.2608 514.749 93.3648 513.481 86.8924C512.317 80.4558 512.037 73.5687 512.641 66.2311C514.055 50.8722 518.381 38.8728 525.619 30.233C532.987 21.4492 541.308 18.2749 550.582 20.7102L553.491 0.206543L564.436 3.9707L561.297 26.093C565.732 29.5048 569.676 34.068 573.129 39.7827C576.582 45.4974 578.952 50.3681 580.239 54.3948L582.17 60.4348Z" fill="#264030"/>
<path d="M652.17 60.4348L642.04 68.2687C641.908 67.6574 641.645 66.8125 641.251 65.734C640.962 64.6913 640.201 62.732 638.97 59.8562C637.842 57.0161 636.52 54.3921 635.003 51.9841C633.59 49.612 631.644 47.1505 629.164 44.5997C626.787 42.0848 624.257 40.2714 621.573 39.1594C615.004 36.1457 608.955 37.5551 603.427 43.3877C598.003 49.2561 594.786 57.6757 593.777 68.6463C592.943 77.6027 594.229 85.4957 597.632 92.3253C601.166 99.011 606.249 105.947 612.882 113.132L616.564 117.228C616.669 117.264 617.805 118.504 619.972 120.947C622.27 123.246 623.837 124.917 624.673 125.959C625.613 127.037 627.181 129.085 629.376 132.104C631.676 135.158 633.375 137.818 634.475 140.082C635.575 142.347 636.898 145.349 638.445 149.087C639.992 152.826 641.057 156.493 641.64 160.089C642.223 163.685 642.56 167.857 642.652 172.604C642.848 177.387 642.589 182.297 641.874 187.333C639.603 203.34 634.755 214.783 627.33 221.66C619.904 228.538 611.569 231.425 602.324 230.32L599.339 251.363L588.395 247.599L591.303 227.095C583.248 223.004 576.512 216.16 571.095 206.564C565.783 197.003 562.36 187.997 560.826 179.547L571.47 173.871C572.793 181.494 575.705 189.097 580.204 196.681C584.729 204.085 590.535 209.006 597.623 211.443C605.545 214.168 612.61 213.297 618.819 208.83C625.132 204.399 629.169 195.979 630.93 183.569C631.363 180.511 631.563 177.562 631.529 174.721C631.625 171.735 631.409 169.02 630.881 166.575C630.379 163.95 629.838 161.595 629.26 159.51C628.785 157.46 627.933 155.375 626.703 153.255C625.499 150.954 624.505 149.103 623.72 147.701C623.039 146.335 621.902 144.718 620.309 142.85C618.715 140.981 617.592 139.652 616.939 138.861C616.286 138.071 615.098 136.813 613.375 135.089C611.756 133.4 610.803 132.412 610.516 132.125L606.833 128.029C603.23 124.149 600.187 120.555 597.704 117.249C595.221 113.943 592.541 109.72 589.663 104.581C586.81 99.2608 584.749 93.3648 583.481 86.8924C582.317 80.4558 582.037 73.5687 582.641 66.2311C584.055 50.8722 588.381 38.8728 595.619 30.233C602.987 21.4492 611.308 18.2749 620.582 20.7102L623.491 0.206543L634.436 3.9707L631.297 26.093C635.732 29.5048 639.676 34.068 643.129 39.7827C646.582 45.4974 648.952 50.3681 650.239 54.3948L652.17 60.4348Z" fill="#264030"/>
<path d="M722.17 60.4348L712.04 68.2687C711.908 67.6574 711.645 66.8125 711.251 65.734C710.962 64.6913 710.201 62.732 708.97 59.8562C707.842 57.0161 706.52 54.3921 705.003 51.9841C703.59 49.612 701.644 47.1505 699.164 44.5997C696.787 42.0848 694.257 40.2714 691.573 39.1594C685.004 36.1457 678.955 37.5551 673.427 43.3877C668.003 49.2561 664.786 57.6757 663.777 68.6463C662.943 77.6027 664.229 85.4957 667.632 92.3253C671.166 99.011 676.249 105.947 682.882 113.132L686.564 117.228C686.669 117.264 687.805 118.504 689.972 120.947C692.27 123.246 693.837 124.917 694.673 125.959C695.613 127.037 697.181 129.085 699.376 132.104C701.676 135.158 703.375 137.818 704.475 140.082C705.575 142.347 706.898 145.349 708.445 149.087C709.992 152.826 711.057 156.493 711.64 160.089C712.223 163.685 712.56 167.857 712.652 172.604C712.848 177.387 712.589 182.297 711.874 187.333C709.603 203.34 704.755 214.783 697.33 221.66C689.904 228.538 681.569 231.425 672.324 230.32L669.339 251.363L658.395 247.599L661.303 227.095C653.248 223.004 646.512 216.16 641.095 206.564C635.783 197.003 632.36 187.997 630.826 179.547L641.47 173.871C642.793 181.494 645.705 189.097 650.204 196.681C654.729 204.085 660.535 209.006 667.623 211.443C675.545 214.168 682.61 213.297 688.819 208.83C695.132 204.399 699.169 195.979 700.93 183.569C701.363 180.511 701.563 177.562 701.529 174.721C701.625 171.735 701.409 169.02 700.881 166.575C700.379 163.95 699.838 161.595 699.26 159.51C698.785 157.46 697.933 155.375 696.703 153.255C695.499 150.954 694.505 149.103 693.72 147.701C693.039 146.335 691.902 144.718 690.309 142.85C688.715 140.981 687.592 139.652 686.939 138.861C686.286 138.071 685.098 136.813 683.375 135.089C681.756 133.4 680.803 132.412 680.516 132.125L676.833 128.029C673.23 124.149 670.187 120.555 667.704 117.249C665.221 113.943 662.541 109.72 659.663 104.581C656.81 99.2608 654.749 93.3648 653.481 86.8924C652.317 80.4558 652.037 73.5687 652.641 66.2311C654.055 50.8722 658.381 38.8728 665.619 30.233C672.987 21.4492 681.308 18.2749 690.582 20.7102L693.491 0.206543L704.436 3.9707L701.297 26.093C705.732 29.5048 709.676 34.068 713.129 39.7827C716.582 45.4974 718.952 50.3681 720.239 54.3948L722.17 60.4348Z" fill="#264030"/>
</svg>
