<svg width="1300" height="104" viewBox="0 0 1300 104" fill="none" xmlns="http://www.w3.org/2000/svg">
<path d="M60.034 79.0152H45.5299V47.1926C45.5299 42.6466 44.7361 39.3272 43.1486 37.2346C41.5611 35.1419 39.3602 34.0956 36.5459 34.0956C35.1027 34.0956 33.6235 34.3842 32.1081 34.9615C30.5927 35.5388 29.1495 36.3686 27.7785 37.451C26.4796 38.4613 25.289 39.688 24.2066 41.1312C23.1242 42.5744 22.3304 44.1619 21.8253 45.8938V79.0152H7.32115V22.2974H20.4182V32.7967C22.5108 29.1887 25.5415 26.3745 29.5103 24.354C33.4791 22.3335 37.9531 21.3233 42.9321 21.3233C46.4679 21.3233 49.3543 21.9727 51.5913 23.2716C53.8283 24.5705 55.5601 26.2662 56.7868 28.3589C58.0135 30.4515 58.8434 32.8328 59.2763 35.5027C59.7815 38.1726 60.034 40.8786 60.034 43.6207V79.0152Z" fill="#264030"/>
<path d="M72.6457 79.0152V22.2974H87.1498V79.0152H72.6457ZM72.6457 14.3959V0H87.1498V14.3959H72.6457Z" fill="#264030"/>
<path d="M122.423 79.3399C118.599 79.3399 115.135 78.5822 112.032 77.0669C108.929 75.5515 106.223 73.495 103.914 70.8972C101.677 68.2273 99.9456 65.1605 98.7188 61.6968C97.4921 58.2331 96.8788 54.553 96.8788 50.6563C96.8788 46.5432 97.5282 42.7187 98.8271 39.1829C100.126 35.647 101.93 32.5442 104.239 29.8742C106.548 27.2043 109.326 25.1117 112.574 23.5963C115.821 22.081 119.393 21.3233 123.289 21.3233C127.691 21.3233 131.552 22.3335 134.871 24.354C138.19 26.3023 140.932 28.9362 143.097 32.2555V22.2974H155.761V76.3092C155.761 80.4945 154.968 84.2468 153.38 87.5662C151.793 90.8855 149.592 93.6998 146.777 96.0089C144.035 98.318 140.716 100.086 136.819 101.313C132.995 102.539 128.81 103.153 124.263 103.153C118.058 103.153 112.826 102.106 108.569 100.014C104.383 97.9933 100.775 95.1069 97.7447 91.3546L105.646 83.6695C107.811 86.3394 110.517 88.4321 113.764 89.9474C117.084 91.4628 120.583 92.2205 124.263 92.2205C126.5 92.2205 128.629 91.8958 130.65 91.2463C132.742 90.669 134.582 89.731 136.17 88.4321C137.757 87.1332 138.984 85.4735 139.85 83.453C140.788 81.4326 141.257 79.0513 141.257 76.3092V69.1654C139.381 72.4126 136.747 74.9382 133.356 76.7422C129.964 78.474 126.32 79.3399 122.423 79.3399ZM127.294 67.7582C128.882 67.7582 130.397 67.5057 131.84 67.0006C133.283 66.4954 134.618 65.8099 135.845 64.944C137.072 64.0781 138.154 63.0678 139.092 61.9133C140.03 60.7587 140.752 59.532 141.257 58.2331V44.7031C139.958 41.3838 137.902 38.7138 135.087 36.6934C132.345 34.6729 129.459 33.6626 126.428 33.6626C124.191 33.6626 122.171 34.1678 120.367 35.178C118.563 36.1161 117.011 37.415 115.713 39.0746C114.414 40.6622 113.403 42.5022 112.682 44.5949C112.032 46.6875 111.708 48.8523 111.708 51.0893C111.708 53.3984 112.105 55.5632 112.898 57.5837C113.692 59.6042 114.774 61.3721 116.145 62.8874C117.589 64.4028 119.248 65.5934 121.125 66.4594C123.001 67.3253 125.057 67.7582 127.294 67.7582Z" fill="#264030"/>
<path d="M195.138 80.0976C190.592 80.0976 186.479 79.3399 182.798 77.8246C179.118 76.237 175.979 74.1083 173.382 71.4384C170.784 68.7685 168.763 65.6656 167.32 62.1298C165.949 58.5939 165.264 54.8777 165.264 50.981C165.264 46.9401 165.949 43.1517 167.32 39.6158C168.691 36.0078 170.676 32.8689 173.273 30.199C175.871 27.4569 179.01 25.2921 182.69 23.7046C186.443 22.117 190.628 21.3233 195.246 21.3233C199.864 21.3233 203.977 22.117 207.585 23.7046C211.266 25.2921 214.368 27.4208 216.894 30.0907C219.492 32.7606 221.44 35.8635 222.739 39.3994C224.11 42.9352 224.796 46.6154 224.796 50.4398C224.796 51.3779 224.76 52.2799 224.687 53.1458C224.687 54.0118 224.615 54.7334 224.471 55.3106H180.634C180.85 57.5476 181.391 59.532 182.257 61.2638C183.123 62.9957 184.242 64.475 185.613 65.7017C186.984 66.9284 188.535 67.8665 190.267 68.5159C191.999 69.1654 193.803 69.4901 195.679 69.4901C198.565 69.4901 201.271 68.8046 203.797 67.4335C206.395 65.9903 208.163 64.1142 209.101 61.805L221.548 65.2687C219.456 69.5983 216.1 73.1702 211.482 75.9845C206.936 78.7266 201.488 80.0976 195.138 80.0976ZM209.858 45.8938C209.498 41.6363 207.91 38.2448 205.096 35.7192C202.354 33.1214 198.998 31.8226 195.03 31.8226C193.081 31.8226 191.241 32.1834 189.509 32.905C187.85 33.5544 186.37 34.4925 185.072 35.7192C183.773 36.9459 182.69 38.4252 181.824 40.157C181.031 41.8889 180.562 43.8011 180.417 45.8938H209.858Z" fill="#264030"/>
<path d="M233.523 0H248.027V60.8309C248.027 62.9235 248.533 64.5471 249.543 65.7017C250.553 66.8562 251.996 67.4335 253.872 67.4335C254.738 67.4335 255.676 67.2892 256.687 67.0006C257.769 66.7119 258.779 66.3511 259.717 65.9182L261.666 76.9586C259.717 77.8967 257.444 78.6183 254.847 79.1234C252.249 79.6286 249.904 79.8811 247.811 79.8811C243.265 79.8811 239.729 78.6905 237.203 76.3092C234.75 73.8558 233.523 70.3921 233.523 65.9182V0Z" fill="#264030"/>
<path d="M264.413 50.6563C264.413 46.6875 265.099 42.9352 266.47 39.3994C267.841 35.8635 269.825 32.7606 272.423 30.0907C275.021 27.4208 278.16 25.2921 281.84 23.7046C285.52 22.117 289.669 21.3233 294.287 21.3233C300.493 21.3233 305.761 22.6582 310.09 25.3282C314.492 27.9981 317.775 31.4978 319.94 35.8274L305.761 40.157C304.534 38.0644 302.91 36.4769 300.89 35.3945C298.87 34.2399 296.633 33.6626 294.179 33.6626C292.086 33.6626 290.138 34.0956 288.334 34.9615C286.53 35.7553 284.943 36.9098 283.572 38.4252C282.273 39.8684 281.226 41.6363 280.433 43.729C279.711 45.8216 279.35 48.1307 279.35 50.6563C279.35 53.1819 279.747 55.491 280.541 57.5837C281.335 59.6763 282.381 61.4803 283.68 62.9957C285.051 64.511 286.638 65.7017 288.442 66.5676C290.246 67.3614 292.159 67.7582 294.179 67.7582C296.777 67.7582 299.158 67.1088 301.323 65.8099C303.56 64.511 305.111 62.9235 305.977 61.0474L320.157 65.377C318.208 69.7066 314.997 73.2424 310.523 75.9845C306.049 78.7266 300.674 80.0976 294.396 80.0976C289.777 80.0976 285.628 79.3038 281.948 77.7163C278.268 76.1288 275.129 74.0001 272.531 71.3302C269.933 68.5881 267.913 65.4491 266.47 61.9133C265.099 58.3053 264.413 54.553 264.413 50.6563Z" fill="#264030"/>
<path d="M417.189 79.0152H402.685V47.1926C402.685 42.6466 401.891 39.3272 400.303 37.2346C398.788 35.1419 396.659 34.0956 393.917 34.0956C391.031 34.0956 388.325 35.2141 385.799 37.451C383.274 39.6158 381.47 42.4662 380.387 46.002V79.0152H365.883V47.1926C365.883 42.6466 365.089 39.3272 363.502 37.2346C361.986 35.1419 359.858 34.0956 357.116 34.0956C354.301 34.0956 351.595 35.178 348.998 37.3428C346.472 39.5076 344.668 42.3579 343.586 45.8938V79.0152H329.081V22.2974H342.178V32.7967C344.271 29.1166 347.121 26.3023 350.729 24.354C354.41 22.3335 358.595 21.3233 363.285 21.3233C368.048 21.3233 371.728 22.4778 374.326 24.787C376.924 27.0961 378.583 29.9464 379.305 33.3379C381.614 29.4413 384.536 26.4827 388.072 24.4622C391.608 22.3696 395.649 21.3233 400.195 21.3233C403.659 21.3233 406.509 21.9727 408.746 23.2716C410.983 24.5705 412.715 26.2662 413.942 28.3589C415.168 30.4515 415.998 32.8328 416.431 35.5027C416.936 38.1726 417.189 40.8786 417.189 43.6207V79.0152Z" fill="#264030"/>
<path d="M456.011 80.0976C451.392 80.0976 447.243 79.3038 443.563 77.7163C439.883 76.1288 436.744 74.0001 434.146 71.3302C431.621 68.5881 429.672 65.4491 428.301 61.9133C426.93 58.3774 426.245 54.6612 426.245 50.7646C426.245 46.7958 426.93 43.0434 428.301 39.5076C429.672 35.9718 431.621 32.8689 434.146 30.199C436.744 27.4569 439.883 25.2921 443.563 23.7046C447.243 22.117 451.392 21.3233 456.011 21.3233C460.629 21.3233 464.742 22.117 468.35 23.7046C472.03 25.2921 475.133 27.4569 477.659 30.199C480.256 32.8689 482.241 35.9718 483.612 39.5076C484.983 43.0434 485.668 46.7958 485.668 50.7646C485.668 54.6612 484.983 58.3774 483.612 61.9133C482.241 65.4491 480.292 68.5881 477.767 71.3302C475.241 74.0001 472.138 76.1288 468.458 77.7163C464.778 79.3038 460.629 80.0976 456.011 80.0976ZM441.182 50.7646C441.182 53.2902 441.543 55.5993 442.264 57.6919C443.058 59.7124 444.104 61.4803 445.403 62.9957C446.774 64.511 448.362 65.7017 450.166 66.5676C451.97 67.3614 453.918 67.7582 456.011 67.7582C458.103 67.7582 460.052 67.3614 461.856 66.5676C463.66 65.7017 465.211 64.511 466.51 62.9957C467.881 61.4803 468.927 59.6763 469.649 57.5837C470.443 55.491 470.84 53.1819 470.84 50.6563C470.84 48.2029 470.443 45.9298 469.649 43.8372C468.927 41.7446 467.881 39.9406 466.51 38.4252C465.211 36.9098 463.66 35.7553 461.856 34.9615C460.052 34.0956 458.103 33.6626 456.011 33.6626C453.918 33.6626 451.97 34.0956 450.166 34.9615C448.362 35.8274 446.774 37.0181 445.403 38.5334C444.104 40.0488 443.058 41.8528 442.264 43.9454C441.543 46.0381 441.182 48.3111 441.182 50.7646Z" fill="#264030"/>
<path d="M494.746 90.0557C495.973 90.4165 497.164 90.669 498.318 90.8134C499.473 91.0298 500.447 91.1381 501.241 91.1381C502.179 91.1381 503.045 90.9577 503.838 90.5969C504.632 90.2361 505.354 89.5866 506.003 88.6486C506.653 87.7826 507.302 86.5559 507.951 84.9684C508.601 83.3809 509.286 81.3965 510.008 79.0152L487.602 22.2974H502.539L517.91 66.4594L531.548 22.2974H545.186L521.373 90.2722C520.002 94.241 517.657 97.4882 514.338 100.014C511.018 102.539 506.905 103.802 501.998 103.802C500.844 103.802 499.653 103.694 498.426 103.477C497.272 103.333 496.045 103.044 494.746 102.612V90.0557Z" fill="#264030"/>
<path d="M577.466 80.0976C572.92 80.0976 568.807 79.3399 565.127 77.8246C561.447 76.237 558.308 74.1083 555.71 71.4384C553.112 68.7685 551.092 65.6656 549.648 62.1298C548.277 58.5939 547.592 54.8777 547.592 50.981C547.592 46.9401 548.277 43.1517 549.648 39.6158C551.019 36.0078 553.004 32.8689 555.602 30.199C558.199 27.4569 561.338 25.2921 565.018 23.7046C568.771 22.117 572.956 21.3233 577.574 21.3233C582.193 21.3233 586.306 22.117 589.914 23.7046C593.594 25.2921 596.697 27.4208 599.222 30.0907C601.82 32.7606 603.768 35.8635 605.067 39.3994C606.438 42.9352 607.124 46.6154 607.124 50.4398C607.124 51.3779 607.088 52.2799 607.016 53.1458C607.016 54.0118 606.943 54.7334 606.799 55.3106H562.962C563.178 57.5476 563.72 59.532 564.586 61.2638C565.451 62.9957 566.57 64.475 567.941 65.7017C569.312 66.9284 570.863 67.8665 572.595 68.5159C574.327 69.1654 576.131 69.4901 578.007 69.4901C580.894 69.4901 583.6 68.8046 586.125 67.4335C588.723 65.9903 590.491 64.1142 591.429 61.805L603.877 65.2687C601.784 69.5983 598.429 73.1702 593.81 75.9845C589.264 78.7266 583.816 80.0976 577.466 80.0976ZM592.187 45.8938C591.826 41.6363 590.238 38.2448 587.424 35.7192C584.682 33.1214 581.327 31.8226 577.358 31.8226C575.409 31.8226 573.569 32.1834 571.838 32.905C570.178 33.5544 568.699 34.4925 567.4 35.7192C566.101 36.9459 565.018 38.4252 564.153 40.157C563.359 41.8889 562.89 43.8011 562.745 45.8938H592.187Z" fill="#264030"/>
<path d="M637.391 80.0976C632.629 80.0976 627.974 79.3399 623.428 77.8246C618.882 76.3092 614.986 74.1444 611.738 71.3302L617.15 62.238C620.614 64.6914 623.97 66.5676 627.217 67.8665C630.536 69.0932 633.819 69.7066 637.067 69.7066C639.953 69.7066 642.226 69.1654 643.886 68.083C645.545 67.0006 646.375 65.4491 646.375 63.4286C646.375 61.4082 645.401 59.9289 643.453 58.9908C641.504 58.0527 638.329 56.9703 633.928 55.7436C630.247 54.7334 627.109 53.7592 624.511 52.8211C621.913 51.883 619.82 50.8367 618.233 49.6822C616.645 48.4554 615.491 47.0844 614.769 45.569C614.048 43.9815 613.687 42.1054 613.687 39.9406C613.687 37.0542 614.228 34.4564 615.31 32.1473C616.465 29.8382 618.052 27.8898 620.073 26.3023C622.093 24.6426 624.439 23.3798 627.108 22.5139C629.851 21.648 632.809 21.215 635.984 21.215C640.242 21.215 644.21 21.8284 647.891 23.0551C651.643 24.2818 655.07 26.2662 658.173 29.0083L652.328 37.7758C649.442 35.611 646.628 34.0234 643.886 33.0132C641.216 32.003 638.546 31.4978 635.876 31.4978C633.422 31.4978 631.366 32.003 629.706 33.0132C628.047 34.0234 627.217 35.647 627.217 37.884C627.217 38.8942 627.397 39.7241 627.758 40.3735C628.191 41.023 628.84 41.6002 629.706 42.1054C630.572 42.6105 631.691 43.1156 633.062 43.6207C634.505 44.0537 636.273 44.5227 638.365 45.0278C642.262 46.0381 645.581 47.0483 648.324 48.0586C651.138 49.0688 653.411 50.2234 655.143 51.5222C656.947 52.8211 658.246 54.3365 659.039 56.0683C659.905 57.728 660.338 59.7485 660.338 62.1298C660.338 67.6861 658.282 72.0878 654.168 75.335C650.055 78.5101 644.463 80.0976 637.391 80.0976Z" fill="#264030"/>
<path d="M708.837 13.7465C714.105 13.7465 719.156 14.6485 723.991 16.4525C728.898 18.2565 733.227 20.8903 736.98 24.354C740.732 27.8177 743.691 32.1112 745.855 37.2346C748.092 42.3579 749.211 48.275 749.211 54.9859C749.211 55.9962 749.139 57.3672 748.994 59.099C748.922 60.7587 748.706 62.5266 748.345 64.4028C747.984 66.279 747.443 68.1912 746.721 70.1395C746 72.0878 745.025 73.8558 743.799 75.4433C742.572 77.0308 741.021 78.2936 739.144 79.2317C737.34 80.2419 735.14 80.747 732.542 80.747C730.593 80.747 728.97 80.4584 727.671 79.8811C726.444 79.376 725.434 78.6905 724.64 77.8246C723.919 76.9586 723.378 76.0206 723.017 75.0103C722.656 73.9279 722.403 72.8816 722.259 71.8714C720.022 74.1083 717.316 75.9123 714.141 77.2834C710.966 78.5822 707.538 79.2317 703.858 79.2317C698.446 79.2317 694.333 77.8246 691.519 75.0103C688.705 72.1961 687.297 68.552 687.297 64.0781C687.297 61.1195 687.875 58.63 689.029 56.6095C690.256 54.589 691.807 52.9654 693.684 51.7387C695.632 50.512 697.797 49.6461 700.178 49.141C702.631 48.5637 705.085 48.275 707.538 48.275C710.425 48.275 712.914 48.5637 715.007 49.141C717.1 49.6461 718.687 50.1512 719.769 50.6563C719.769 48.708 719.589 46.904 719.228 45.2443C718.867 43.5846 718.218 42.1775 717.28 41.023C716.342 39.8684 715.079 38.9664 713.492 38.317C711.904 37.6675 709.884 37.3428 707.43 37.3428C704.472 37.3428 701.766 37.7758 699.312 38.6417C696.859 39.5076 694.766 40.6622 693.034 42.1054L690.22 34.4203C695.704 30.8123 701.91 29.0083 708.837 29.0083C713.528 29.0083 717.172 29.7299 719.769 31.1731C722.439 32.6163 724.388 34.4564 725.614 36.6934C726.913 38.8582 727.707 41.2755 727.996 43.9454C728.284 46.6154 728.429 49.177 728.429 51.6305V62.0215C728.429 63.609 728.465 65.1605 728.537 66.6758C728.681 68.119 728.934 69.4179 729.295 70.5725C729.655 71.6549 730.197 72.5569 730.918 73.2785C731.64 73.9279 732.65 74.2526 733.949 74.2526C735.897 74.2526 737.449 73.531 738.603 72.0878C739.83 70.6446 740.768 68.9128 741.417 66.8923C742.139 64.7997 742.608 62.6349 742.825 60.3979C743.041 58.161 743.149 56.2848 743.149 54.7694C743.149 49.7182 742.283 45.0639 740.552 40.8065C738.892 36.4769 736.547 32.7606 733.516 29.6578C730.485 26.4827 726.841 24.0293 722.584 22.2974C718.326 20.4934 713.6 19.5914 708.404 19.5914C703.281 19.5914 698.591 20.4574 694.333 22.1892C690.148 23.921 686.504 26.3384 683.401 29.4413C680.37 32.472 677.989 36.1161 676.257 40.3735C674.597 44.5588 673.768 49.141 673.768 54.12C673.768 58.9547 674.561 63.5008 676.149 67.7582C677.736 71.9435 679.973 75.6237 682.86 78.7987C685.818 81.9016 689.354 84.355 693.467 86.159C697.58 88.0352 702.162 88.9733 707.214 88.9733C710.677 88.9733 713.672 88.5764 716.198 87.7826C718.723 87.061 721.357 86.0869 724.099 84.8602L725.831 90.4886C722.8 91.9318 719.697 93.0142 716.522 93.7358C713.347 94.4574 710.172 94.8182 706.997 94.8182C701.585 94.8182 696.498 93.8441 691.735 91.8958C686.973 89.9474 682.788 87.1693 679.18 83.5613C675.644 80.0254 672.829 75.768 670.737 70.789C668.716 65.7378 667.706 60.1814 667.706 54.12C667.706 47.6978 668.825 41.9971 671.062 37.0181C673.298 31.9669 676.293 27.7455 680.045 24.354C683.87 20.8903 688.272 18.2565 693.251 16.4525C698.23 14.6485 703.425 13.7465 708.837 13.7465ZM714.141 69.5983C716.089 68.6602 717.496 67.5057 718.362 66.1346C719.228 64.7636 719.661 63.2482 719.661 61.5886V57.4754C718.651 57.1146 717.063 56.6456 714.899 56.0683C712.734 55.491 710.28 55.2024 707.538 55.2024C704.147 55.2024 701.369 55.8518 699.204 57.1507C697.039 58.4496 695.957 60.6505 695.957 63.7534C695.957 66.2068 696.714 68.1551 698.23 69.5983C699.817 71.0415 701.982 71.7631 704.724 71.7631C706.167 71.7631 707.755 71.5827 709.487 71.2219C711.219 70.8611 712.77 70.3199 714.141 69.5983Z" fill="#264030"/>
<path d="M783.385 79.3399C779.561 79.3399 776.097 78.5822 772.994 77.0669C769.891 75.5515 767.185 73.495 764.876 70.8972C762.639 68.2273 760.907 65.1605 759.68 61.6968C758.454 58.2331 757.84 54.553 757.84 50.6563C757.84 46.5432 758.49 42.7187 759.789 39.1829C761.088 35.647 762.892 32.5442 765.201 29.8742C767.51 27.2043 770.288 25.1117 773.535 23.5963C776.782 22.081 780.354 21.3233 784.251 21.3233C788.653 21.3233 792.513 22.3335 795.833 24.354C799.152 26.3023 801.894 28.9362 804.059 32.2555V22.2974H816.723V76.3092C816.723 80.4945 815.929 84.2468 814.342 87.5662C812.754 90.8855 810.553 93.6998 807.739 96.0089C804.997 98.318 801.678 100.086 797.781 101.313C793.956 102.539 789.771 103.153 785.225 103.153C779.019 103.153 773.788 102.106 769.53 100.014C765.345 97.9933 761.737 95.1069 758.706 91.3546L766.608 83.6695C768.773 86.3394 771.479 88.4321 774.726 89.9474C778.045 91.4628 781.545 92.2205 785.225 92.2205C787.462 92.2205 789.591 91.8958 791.611 91.2463C793.704 90.669 795.544 89.731 797.132 88.4321C798.719 87.1332 799.946 85.4735 800.812 83.453C801.75 81.4326 802.219 79.0513 802.219 76.3092V69.1654C800.343 72.4126 797.709 74.9382 794.317 76.7422C790.926 78.474 787.282 79.3399 783.385 79.3399ZM788.256 67.7582C789.843 67.7582 791.359 67.5057 792.802 67.0006C794.245 66.4954 795.58 65.8099 796.807 64.944C798.034 64.0781 799.116 63.0678 800.054 61.9133C800.992 60.7587 801.714 59.532 802.219 58.2331V44.7031C800.92 41.3838 798.863 38.7138 796.049 36.6934C793.307 34.6729 790.421 33.6626 787.39 33.6626C785.153 33.6626 783.132 34.1678 781.328 35.178C779.524 36.1161 777.973 37.415 776.674 39.0746C775.375 40.6622 774.365 42.5022 773.643 44.5949C772.994 46.6875 772.669 48.8523 772.669 51.0893C772.669 53.3984 773.066 55.5632 773.86 57.5837C774.654 59.6042 775.736 61.3721 777.107 62.8874C778.55 64.4028 780.21 65.5934 782.086 66.4594C783.962 67.3253 786.019 67.7582 788.256 67.7582Z" fill="#264030"/>
<path d="M917.905 79.0152H903.4V47.1926C903.4 42.6466 902.607 39.3272 901.019 37.2346C899.504 35.1419 897.375 34.0956 894.633 34.0956C891.747 34.0956 889.04 35.2141 886.515 37.451C883.989 39.6158 882.185 42.4662 881.103 46.002V79.0152H866.599V47.1926C866.599 42.6466 865.805 39.3272 864.217 37.2346C862.702 35.1419 860.573 34.0956 857.831 34.0956C855.017 34.0956 852.311 35.178 849.713 37.3428C847.188 39.5076 845.384 42.3579 844.301 45.8938V79.0152H829.797V22.2974H842.894V32.7967C844.987 29.1166 847.837 26.3023 851.445 24.354C855.125 22.3335 859.311 21.3233 864.001 21.3233C868.764 21.3233 872.444 22.4778 875.042 24.787C877.639 27.0961 879.299 29.9464 880.021 33.3379C882.33 29.4413 885.252 26.4827 888.788 24.4622C892.324 22.3696 896.365 21.3233 900.911 21.3233C904.375 21.3233 907.225 21.9727 909.462 23.2716C911.699 24.5705 913.431 26.2662 914.657 28.3589C915.884 30.4515 916.714 32.8328 917.147 35.5027C917.652 38.1726 917.905 40.8786 917.905 43.6207V79.0152Z" fill="#264030"/>
<path d="M946.01 80.0976C943.268 80.0976 940.707 79.6646 938.326 78.7987C935.944 77.8606 933.888 76.5978 932.156 75.0103C930.424 73.3506 929.053 71.4384 928.043 69.2736C927.105 67.1088 926.636 64.7275 926.636 62.1298C926.636 59.4598 927.213 57.0064 928.367 54.7694C929.594 52.4603 931.254 50.512 933.346 48.9245C935.511 47.337 938.073 46.1102 941.031 45.2443C943.99 44.3062 947.237 43.8372 950.773 43.8372C953.299 43.8372 955.752 44.0537 958.133 44.4866C960.587 44.9196 962.752 45.533 964.628 46.3267V43.0795C964.628 39.3272 963.545 36.4408 961.381 34.4203C959.288 32.3998 956.149 31.3896 951.964 31.3896C948.933 31.3896 945.974 31.9308 943.088 33.0132C940.202 34.0956 937.243 35.6831 934.212 37.7758L929.775 28.5754C937.063 23.7406 944.928 21.3233 953.371 21.3233C961.525 21.3233 967.839 23.3438 972.313 27.3847C976.859 31.3535 979.132 37.1263 979.132 44.7031V62.3462C979.132 63.8616 979.385 64.944 979.89 65.5934C980.467 66.2429 981.369 66.6037 982.596 66.6758V79.0152C980.142 79.5203 978.013 79.7729 976.209 79.7729C973.467 79.7729 971.339 79.1595 969.823 77.9328C968.38 76.7061 967.478 75.0825 967.117 73.062L966.793 69.923C964.267 73.2424 961.2 75.768 957.592 77.4998C953.984 79.2317 950.124 80.0976 946.01 80.0976ZM950.124 69.4901C952.577 69.4901 954.886 69.0571 957.051 68.1912C959.288 67.3253 961.02 66.1707 962.247 64.7275C963.834 63.5008 964.628 62.1298 964.628 60.6144V54.12C962.896 53.4706 961.02 52.9654 958.999 52.6046C956.979 52.1717 955.031 51.9552 953.154 51.9552C949.402 51.9552 946.335 52.8211 943.954 54.553C941.573 56.2126 940.382 58.3414 940.382 60.9391C940.382 63.3926 941.32 65.4491 943.196 67.1088C945.072 68.6963 947.382 69.4901 950.124 69.4901Z" fill="#264030"/>
<path d="M992.686 79.0152V22.2974H1007.19V79.0152H992.686ZM992.686 14.3959V0H1007.19V14.3959H992.686Z" fill="#264030"/>
<path d="M1020.17 0H1034.67V60.8309C1034.67 62.9235 1035.18 64.5471 1036.19 65.7017C1037.2 66.8562 1038.64 67.4335 1040.52 67.4335C1041.38 67.4335 1042.32 67.2892 1043.33 67.0006C1044.41 66.7119 1045.42 66.3511 1046.36 65.9182L1048.31 76.9586C1046.36 77.8967 1044.09 78.6183 1041.49 79.1234C1038.89 79.6286 1036.55 79.8811 1034.45 79.8811C1029.91 79.8811 1026.37 78.6905 1023.85 76.3092C1021.39 73.8558 1020.17 70.3921 1020.17 65.9182V0Z" fill="#264030"/>
<path d="M1054.3 79.0152V63.4286H1066.21V79.0152H1054.3Z" fill="#264030"/>
<path d="M1075.37 50.6563C1075.37 46.6875 1076.05 42.9352 1077.42 39.3994C1078.8 35.8635 1080.78 32.7606 1083.38 30.0907C1085.98 27.4208 1089.11 25.2921 1092.79 23.7046C1096.47 22.117 1100.62 21.3233 1105.24 21.3233C1111.45 21.3233 1116.72 22.6582 1121.04 25.3282C1125.45 27.9981 1128.73 31.4978 1130.89 35.8274L1116.72 40.157C1115.49 38.0644 1113.86 36.4769 1111.84 35.3945C1109.82 34.2399 1107.59 33.6626 1105.13 33.6626C1103.04 33.6626 1101.09 34.0956 1099.29 34.9615C1097.48 35.7553 1095.9 36.9098 1094.53 38.4252C1093.23 39.8684 1092.18 41.6363 1091.39 43.729C1090.67 45.8216 1090.3 48.1307 1090.3 50.6563C1090.3 53.1819 1090.7 55.491 1091.5 57.5837C1092.29 59.6763 1093.34 61.4803 1094.63 62.9957C1096.01 64.511 1097.59 65.7017 1099.4 66.5676C1101.2 67.3614 1103.11 67.7582 1105.13 67.7582C1107.73 67.7582 1110.11 67.1088 1112.28 65.8099C1114.51 64.511 1116.07 62.9235 1116.93 61.0474L1131.11 65.377C1129.16 69.7066 1125.95 73.2424 1121.48 75.9845C1117 78.7266 1111.63 80.0976 1105.35 80.0976C1100.73 80.0976 1096.58 79.3038 1092.9 77.7163C1089.22 76.1288 1086.08 74.0001 1083.49 71.3302C1080.89 68.5881 1078.87 65.4491 1077.42 61.9133C1076.05 58.3053 1075.37 54.553 1075.37 50.6563Z" fill="#264030"/>
<path d="M1165.7 80.0976C1161.08 80.0976 1156.93 79.3038 1153.25 77.7163C1149.57 76.1288 1146.43 74.0001 1143.84 71.3302C1141.31 68.5881 1139.36 65.4491 1137.99 61.9133C1136.62 58.3774 1135.94 54.6612 1135.94 50.7646C1135.94 46.7958 1136.62 43.0434 1137.99 39.5076C1139.36 35.9718 1141.31 32.8689 1143.84 30.199C1146.43 27.4569 1149.57 25.2921 1153.25 23.7046C1156.93 22.117 1161.08 21.3233 1165.7 21.3233C1170.32 21.3233 1174.43 22.117 1178.04 23.7046C1181.72 25.2921 1184.82 27.4569 1187.35 30.199C1189.95 32.8689 1191.93 35.9718 1193.3 39.5076C1194.67 43.0434 1195.36 46.7958 1195.36 50.7646C1195.36 54.6612 1194.67 58.3774 1193.3 61.9133C1191.93 65.4491 1189.98 68.5881 1187.46 71.3302C1184.93 74.0001 1181.83 76.1288 1178.15 77.7163C1174.47 79.3038 1170.32 80.0976 1165.7 80.0976ZM1150.87 50.7646C1150.87 53.2902 1151.23 55.5993 1151.96 57.6919C1152.75 59.7124 1153.8 61.4803 1155.09 62.9957C1156.47 64.511 1158.05 65.7017 1159.86 66.5676C1161.66 67.3614 1163.61 67.7582 1165.7 67.7582C1167.79 67.7582 1169.74 67.3614 1171.55 66.5676C1173.35 65.7017 1174.9 64.511 1176.2 62.9957C1177.57 61.4803 1178.62 59.6763 1179.34 57.5837C1180.13 55.491 1180.53 53.1819 1180.53 50.6563C1180.53 48.2029 1180.13 45.9298 1179.34 43.8372C1178.62 41.7446 1177.57 39.9406 1176.2 38.4252C1174.9 36.9098 1173.35 35.7553 1171.55 34.9615C1169.74 34.0956 1167.79 33.6626 1165.7 33.6626C1163.61 33.6626 1161.66 34.0956 1159.86 34.9615C1158.05 35.8274 1156.47 37.0181 1155.09 38.5334C1153.8 40.0488 1152.75 41.8528 1151.96 43.9454C1151.23 46.0381 1150.87 48.3111 1150.87 50.7646Z" fill="#264030"/>
<path d="M1293.26 79.0152H1278.75V47.1926C1278.75 42.6466 1277.96 39.3272 1276.37 37.2346C1274.86 35.1419 1272.73 34.0956 1269.98 34.0956C1267.1 34.0956 1264.39 35.2141 1261.87 37.451C1259.34 39.6158 1257.54 42.4662 1256.45 46.002V79.0152H1241.95V47.1926C1241.95 42.6466 1241.16 39.3272 1239.57 37.2346C1238.05 35.1419 1235.93 34.0956 1233.18 34.0956C1230.37 34.0956 1227.66 35.178 1225.07 37.3428C1222.54 39.5076 1220.74 42.3579 1219.65 45.8938V79.0152H1205.15V22.2974H1218.25V32.7967C1220.34 29.1166 1223.19 26.3023 1226.8 24.354C1230.48 22.3335 1234.66 21.3233 1239.35 21.3233C1244.12 21.3233 1247.8 22.4778 1250.39 24.787C1252.99 27.0961 1254.65 29.9464 1255.37 33.3379C1257.68 29.4413 1260.6 26.4827 1264.14 24.4622C1267.68 22.3696 1271.72 21.3233 1276.26 21.3233C1279.73 21.3233 1282.58 21.9727 1284.81 23.2716C1287.05 24.5705 1288.78 26.2662 1290.01 28.3589C1291.24 30.4515 1292.07 32.8328 1292.5 35.5027C1293 38.1726 1293.26 40.8786 1293.26 43.6207V79.0152Z" fill="#264030"/>
<path d="M0.718506 89.8392H1299.32V95.2512H0.718506V89.8392Z" fill="#264030"/>
</svg>
