<svg width="1309" height="146" viewBox="0 0 1309 146" fill="none" xmlns="http://www.w3.org/2000/svg">
<path d="M29.4337 55.1528V145H0.0328551V1.07999H27.1721L88.6465 90.516V1.07999H118.047V145H91.3193L29.4337 55.1528ZM147.827 145V1.07999H177.228V145H147.827ZM321.405 65.2272V114.16C314.963 124.029 306.533 131.705 296.116 137.187C285.836 142.67 275.282 145.411 264.454 145.411C245.264 145.411 228.885 138.352 215.315 124.234C201.883 109.979 195.167 92.9147 195.167 73.04C195.167 53.1653 201.883 36.1691 215.315 22.0512C228.885 7.93332 245.264 0.874389 264.454 0.874389C274.597 0.874389 284.465 3.20452 294.06 7.86478C303.655 12.5251 311.262 18.556 316.882 25.9576L296.322 45.284C287.001 33.7704 276.379 28.0136 264.454 28.0136C253.763 28.0136 244.442 32.3997 236.492 41.172C228.542 49.8072 224.567 60.4299 224.567 73.04C224.567 85.6501 228.542 96.3413 236.492 105.114C244.442 113.886 253.763 118.272 264.454 118.272C275.282 118.272 284.534 114.023 292.21 105.525V92.3664H257.463V65.2272H321.405ZM339.53 145V1.07999H439.04V28.2192H368.931V58.8536H425.471V85.9928H368.931V117.861H439.246V145H339.53ZM463.475 1.07999H492.875V117.861H543.659V145H463.475V1.07999ZM769.401 1.07999V145H740V66.872L697.852 145.822L655.91 66.6664V145H626.509V1.07999H653.648L697.852 84.348L742.262 1.07999H769.401ZM860.336 0.668791C880.484 0.668791 897.618 7.72772 911.736 21.8456C925.99 35.8264 933.118 52.8227 933.118 72.8344C933.118 87.3635 929.417 100.248 922.016 111.487C914.751 122.727 905.636 131.156 894.671 136.776C883.705 142.259 872.26 145 860.336 145C840.187 145 822.985 137.941 808.73 123.823C794.612 109.705 787.553 92.7091 787.553 72.8344C787.553 52.9597 794.544 35.9635 808.524 21.8456C822.642 7.72772 839.913 0.668791 860.336 0.668791ZM860.336 27.808C848.411 27.808 838.199 32.1941 829.701 40.9664C821.203 49.7387 816.954 60.3613 816.954 72.8344C816.954 85.3075 821.203 95.9301 829.701 104.702C838.199 113.475 848.411 117.861 860.336 117.861C871.575 117.861 881.581 113.749 890.353 105.525C899.262 97.1637 903.717 86.2669 903.717 72.8344C903.717 60.3613 899.4 49.7387 890.764 40.9664C882.266 32.1941 872.123 27.808 860.336 27.808ZM1047.8 1.07999H1083.99L1024.57 77.5632V145H995.376V77.5632L935.958 1.07999H972.143L1009.97 49.8072L1047.8 1.07999ZM1098.28 145V1.07999H1197.79V28.2192H1127.68V58.8536H1184.22V85.9928H1127.68V117.861H1198V145H1098.28ZM1303.8 22.668L1283.65 41.172C1280.64 37.7453 1278.38 35.3467 1276.87 33.976C1275.5 32.4683 1273.17 30.9605 1269.88 29.4528C1266.73 27.9451 1263.16 27.1912 1259.19 27.1912C1255.49 27.1912 1252.4 28.3563 1249.93 30.6864C1247.47 32.8795 1246.23 35.8264 1246.23 39.5272C1246.23 42.8168 1247.54 45.4896 1250.14 47.5456C1252.74 49.6016 1257.68 52.1373 1264.94 55.1528C1269.06 56.7976 1272 58.0312 1273.78 58.8536C1275.7 59.676 1278.51 61.0467 1282.21 62.9656C1285.91 64.7475 1288.66 66.3923 1290.44 67.9C1292.36 69.2707 1294.69 71.2581 1297.43 73.8624C1300.17 76.4667 1302.16 79.0709 1303.39 81.6752C1304.62 84.2795 1305.72 87.432 1306.68 91.1328C1307.78 94.8336 1308.33 98.8085 1308.33 103.058C1308.33 112.104 1305.79 119.985 1300.72 126.702C1295.78 133.281 1289.55 138.078 1282.01 141.094C1274.61 143.972 1266.59 145.411 1257.95 145.411C1249.45 145.411 1241.23 143.629 1233.28 140.066C1225.33 136.365 1219.3 132.527 1215.19 128.552C1211.08 124.44 1208.81 121.15 1208.4 118.683L1229.79 101.207C1237.05 112.447 1246.44 118.066 1257.95 118.066C1272.07 118.066 1279.13 113.063 1279.13 103.058C1279.13 97.4379 1277.35 93.2573 1273.78 90.516C1270.22 87.6376 1263.57 84.2109 1253.84 80.236C1250 78.7283 1246.71 77.3576 1243.97 76.124C1241.37 74.7533 1238.22 72.8344 1234.51 70.3672C1230.81 67.9 1227.8 65.3643 1225.47 62.76C1223.14 60.1557 1221.08 56.7976 1219.3 52.6856C1217.66 48.5736 1216.83 44.1875 1216.83 39.5272C1216.83 28.2877 1221.01 18.8987 1229.37 11.36C1237.87 3.82132 1247.81 0.0519869 1259.19 0.0519869C1277.96 0.0519869 1292.84 7.59065 1303.8 22.668Z" fill="#264030"/>
</svg>
