<svg width="50" height="61" viewBox="0 0 50 61" fill="none" xmlns="http://www.w3.org/2000/svg">
<path d="M39.5013 15.5552C42.7156 15.5211 42.7156 15.5211 42.7156 19.2308C42.7156 19.4691 42.7156 19.7073 42.7156 19.9795C42.7156 22.7362 42.7156 22.7022 45.1043 23.0086C45.3991 23.0426 45.6351 23.5191 45.871 23.8253C45.9594 23.9615 45.9005 24.1997 45.9005 24.404C45.9299 26.5821 45.9299 26.6501 47.7878 26.6161C48.8494 26.5821 49.2327 26.9565 49.1738 28.2158C49.0853 29.7813 49.1148 31.3809 49.1738 32.9464C49.2032 33.9674 48.9084 34.4439 47.9942 34.3077C47.8173 34.2737 47.6403 34.3418 47.4929 34.3077C46.2248 34.0695 45.6351 34.614 45.9005 36.1456C46.1659 37.6431 45.6056 38.1195 44.308 37.9834C42.981 37.8473 41.654 37.9154 40.327 37.9834C39.6488 38.0174 39.2654 37.7792 39.3539 36.9284C39.3834 36.7922 39.3539 36.6221 39.3539 36.4859C39.3244 34.3418 38.7346 33.7973 36.8768 34.4098C36.5819 34.5119 36.287 35.2607 36.287 35.7372C36.2575 39.7192 36.2575 43.7352 36.2575 47.7171C36.2575 50.2356 36.2575 52.7542 36.2575 55.2727C36.2575 56.0894 36.0806 56.5319 35.2549 56.5659C33.0137 56.668 33.0137 56.7361 33.0137 59.2546C33.0137 59.5609 32.9842 59.8331 32.9842 60.1394C30.8315 60.1394 28.7083 60.1394 26.5556 60.1394C26.5261 59.9352 26.4671 59.7651 26.4671 59.5609C26.3491 56.8042 26.3786 56.7701 24.0785 56.5659C23.3117 56.4979 23.1938 56.0554 23.1938 55.3067C23.2233 52.4478 23.1643 49.589 23.2233 46.7301C23.2528 45.6751 22.9579 45.4028 22.0437 45.4028C18.5345 45.4709 15.0253 45.4028 11.5456 45.4368C10.5724 45.4709 10.2186 45.0965 10.3365 44.0074C10.366 43.7692 10.307 43.497 10.3365 43.2586C10.484 42.1355 10.1596 41.6591 9.09798 41.7271C7.74148 41.8292 6.35549 41.6931 4.99899 41.7612C4.17329 41.7952 3.8489 41.4549 3.90788 40.4679C3.96686 39.651 3.90788 38.8003 3.90788 37.9494C3.93737 37.9154 3.99635 37.8473 4.02584 37.8133C4.52716 37.8133 5.05797 37.7452 5.55928 37.8473C6.79783 38.0515 7.29914 37.507 7.1222 36.0776C7.09271 35.8394 7.15169 35.567 7.1222 35.3288C7.03374 34.3418 7.44658 34.0015 8.27228 34.0695C8.53768 34.1036 8.80309 34.1036 9.039 34.0695C10.1301 33.8994 10.6019 34.3077 10.5134 35.6691C10.425 37.2007 10.5429 38.7322 10.484 40.2637C10.425 41.4549 10.9853 41.591 11.752 41.4889C12.4892 41.3868 13.6098 42.0334 13.6098 40.2977C13.5803 38.7322 13.6688 37.1325 13.6098 35.567C13.5508 34.4098 13.9047 33.8994 14.9368 34.0695C15.2612 34.1036 15.6151 34.1036 15.9689 34.0695C16.7652 34.0015 17.0306 34.4098 17.0011 35.2948C16.9716 36.9624 17.0011 38.6641 16.9716 40.3318C16.9716 41.1146 17.1485 41.523 17.9152 41.523C19.4192 41.4889 20.9231 41.4889 22.3976 41.523C23.0463 41.523 23.3117 41.2167 23.2823 40.4679C23.2528 38.7322 23.2528 36.9964 23.2823 35.2948C23.2823 34.9204 23.4297 34.2737 23.5477 34.2737C24.4618 34.1716 25.435 34.1376 26.3196 34.3077C26.4966 34.3418 26.6145 35.4309 26.6145 36.0095C26.644 42.3398 26.644 48.636 26.6145 54.9663C26.6145 55.9873 26.8799 56.3618 27.7646 56.3276C28.8852 56.2596 29.9763 56.3276 31.0969 56.2936C33.2201 56.2936 32.9252 56.4297 32.9252 54.1155C32.9252 45.4709 32.9252 36.8263 32.9252 28.2158C32.9252 27.7392 33.1022 26.8543 33.2791 26.8204C34.1638 26.6842 35.1074 26.6161 35.9331 26.8883C36.1985 26.9565 36.287 28.1817 36.2575 28.8964C36.1985 30.0876 36.4934 30.53 37.614 30.496C39.7077 30.4279 39.4423 30.1556 39.4718 32.5721C39.4718 32.7082 39.5013 32.8783 39.4718 33.0145C39.3834 33.8653 39.7077 34.1376 40.4155 34.1376C41.9194 34.1036 43.4234 34.1036 44.8978 34.1376C45.5466 34.1376 45.812 33.8653 45.7825 33.0825C45.753 31.6531 45.694 30.2237 45.7825 28.7943C45.9005 27.2968 45.5171 26.7864 44.1901 26.8885C42.5092 27.0246 42.4207 26.8885 42.5387 24.9825C42.6272 23.451 42.1553 22.9064 40.8873 23.1787C40.7988 23.1787 40.7104 23.1787 40.6219 23.1787C39.6488 23.3489 39.2654 22.9746 39.2949 21.7492C39.3834 19.7753 39.2949 17.8013 39.2949 15.8274C39.3834 15.6913 39.4423 15.6232 39.5013 15.5552Z" fill="#264030"/>
<path d="M9.39237 12.118C9.0385 12.118 8.71412 12.152 8.36025 12.118C7.59353 12.0159 7.29864 12.3902 7.32813 13.3092C7.38711 14.6365 7.32813 15.9638 7.32813 17.2911C7.32813 19.4353 7.32813 19.5033 5.44082 19.4353C4.32023 19.4012 3.99585 19.8096 4.02534 21.1029C4.08432 26.6845 4.05483 32.266 4.05483 37.8136C4.02534 37.8476 3.96636 37.9157 3.93687 37.9497C0.693068 37.9497 0.693064 37.9497 0.693065 34.1379C0.693065 29.7475 0.722556 25.3572 0.663577 20.9668C0.63409 19.6395 0.928981 19.129 2.16752 19.1971C4.20227 19.2991 3.90739 19.4353 3.93687 17.155C3.93687 15.8277 3.99585 14.5003 3.90738 13.173C3.84841 12.186 4.17279 11.9138 4.99849 11.8797C7.09222 11.8117 7.09222 11.7777 7.09222 9.39526C7.09222 6.94482 7.1217 4.46035 7.09222 2.0099C7.09222 1.15905 7.32813 0.784684 8.12434 0.818717C9.65777 0.886786 11.1912 0.852751 12.7541 0.818717C13.4323 0.784684 13.8157 1.02292 13.7567 1.9078C13.7272 2.14604 13.7272 2.41832 13.7567 2.65655C13.8452 3.23513 13.8747 4.29017 14.0811 4.32421C14.8478 4.52841 15.703 4.49438 16.4697 4.32421C16.6467 4.29017 16.7351 3.3032 16.7646 2.75865C16.7941 0.852751 16.7941 0.85275 18.416 0.85275C22.8689 0.85275 27.3217 0.886786 31.7451 0.818719C32.8067 0.818719 33.0426 1.19309 33.0132 2.31621C32.9542 4.29017 33.0132 6.26414 33.0132 8.23811C32.9837 8.27214 32.9247 8.34021 32.8952 8.37424C32.0695 8.37424 31.2733 8.44232 30.4771 8.30618C30.1527 8.23811 29.8578 7.76163 29.6514 7.38726C29.5334 7.11499 29.5924 6.70659 29.6219 6.36625C29.7693 5.10699 29.4155 4.63052 28.2359 4.66456C24.9036 4.76665 21.5714 4.73262 18.2391 4.66456C17.1775 4.63051 16.8236 5.00489 16.8531 6.23011C16.9121 8.51038 17.1185 8.20408 15.1427 8.37424C13.7862 8.47635 13.4618 7.93181 13.5208 6.46835C13.6093 4.56245 13.4323 4.52841 11.3386 4.66456C10.6899 4.69859 10.4245 4.93682 10.4245 5.7196C10.4539 7.38726 10.4245 9.08896 10.4245 10.7566C10.4834 12.0159 10.0116 12.118 9.39237 12.118Z" fill="#264030"/>
<path d="M33.044 8.20362C33.2209 8.20362 33.3979 8.20362 33.5453 8.20362C34.3415 8.23766 35.3737 7.93139 35.875 8.40779C36.3173 8.81614 36.1109 10.1092 36.2878 10.96C36.3763 11.3003 36.7302 11.6746 37.0251 11.8447C37.3199 11.9809 37.7033 11.9468 38.0277 11.8788C39.1483 11.7086 39.5906 12.2191 39.4432 13.5122C39.3547 14.1927 39.4432 14.8733 39.4727 15.5538C39.4137 15.6219 39.3547 15.69 39.2957 15.724C38.6175 15.724 37.9097 15.6559 37.2315 15.724C36.2288 15.8601 35.934 15.3156 36.0224 14.2608C36.0519 13.8183 36.1109 13.342 35.9929 12.9336C35.875 12.5933 35.5506 12.117 35.2557 12.083C32.8671 11.7086 32.8671 11.7426 32.8671 8.8842C32.8671 8.68003 32.8671 8.47585 32.8671 8.30571C32.9555 8.27168 33.0145 8.23766 33.044 8.20362Z" fill="#264030"/>
</svg>
