<svg width="142" height="144" viewBox="0 0 142 144" fill="none" xmlns="http://www.w3.org/2000/svg">
<path d="M71 0L81.9267 24.1271L102.24 7.13024L101.616 33.6089L127.292 27.1087L115.241 50.6946L141.195 55.9785L120.104 72L141.195 88.0215L115.241 93.3054L127.292 116.891L101.616 110.391L102.24 136.87L81.9267 119.873L71 144L60.0733 119.873L39.7604 136.87L40.3842 110.391L14.7081 116.891L26.7588 93.3054L0.805191 88.0215L21.896 72L0.805191 55.9785L26.7588 50.6946L14.7081 27.1087L40.3842 33.6089L39.7604 7.13024L60.0733 24.1271L71 0Z" fill="#FAFAF5"/>
</svg>
