<svg width="10" height="10" viewBox="0 0 10 10" fill="none" xmlns="http://www.w3.org/2000/svg">
<path d="M5 0L5.7588 1.6755L7.16942 0.495156L7.1261 2.33395L8.90916 1.88255L8.0723 3.52046L9.87464 3.8874L8.41 5L9.87464 6.1126L8.0723 6.47954L8.90916 8.11745L7.1261 7.66605L7.16942 9.50484L5.7588 8.3245L5 10L4.2412 8.3245L2.83058 9.50484L2.8739 7.66605L1.09084 8.11745L1.9277 6.47954L0.12536 6.1126L1.59 5L0.12536 3.8874L1.9277 3.52046L1.09084 1.88255L2.8739 2.33395L2.83058 0.495156L4.2412 1.6755L5 0Z" fill="#264030"/>
</svg>
